<?xml version="1.0" encoding="utf-8"?>
<!-- Generator: Adobe Illustrator 16.0.4, SVG Export Plug-In . SVG Version: 6.00 Build 0)  -->
<!DOCTYPE svg PUBLIC "-//W3C//DTD SVG 1.1//EN" "http://www.w3.org/Graphics/SVG/1.1/DTD/svg11.dtd">
<svg version="1.1" id="Layer_1" xmlns="http://www.w3.org/2000/svg" xmlns:xlink="http://www.w3.org/1999/xlink" x="0px" y="0px"
 width="24px" height="24px" viewBox="0 0 24 24" enable-background="new 0 0 24 24" xml:space="preserve">
<path fill="#FFFFFF" d="M15,12c2.209,0,4-1.793,4-4c0-2.208-1.791-4-4-4c-2.208,0-4,1.792-4,4C11,10.207,12.792,12,15,12z M6,10V7H4
v3H1v2h3v3h2v-3h3v-2H6z M15,14c-2.666,0-8,1.335-8,4v2h16v-2C23,15.335,17.667,14,15,14z"/>
</svg>
